<mxfile host="app.diagrams.net" modified="2024-04-08T17:59:56.927Z" agent="Mozilla/5.0 (Windows NT 10.0; Win64; x64) AppleWebKit/537.36 (KHTML, like Gecko) Chrome/123.0.0.0 Safari/537.36" etag="g9_XIspeCcuMVe7ICAIE" version="24.2.1" type="github">
  <diagram id="C5RBs43oDa-KdzZeNtuy" name="Page-1">
    <mxGraphModel dx="858" dy="383" grid="1" gridSize="10" guides="1" tooltips="1" connect="1" arrows="1" fold="1" page="1" pageScale="1" pageWidth="827" pageHeight="1169" math="0" shadow="0">
      <root>
        <mxCell id="WIyWlLk6GJQsqaUBKTNV-0" />
        <mxCell id="WIyWlLk6GJQsqaUBKTNV-1" parent="WIyWlLk6GJQsqaUBKTNV-0" />
        <mxCell id="WIyWlLk6GJQsqaUBKTNV-3" value="&lt;font color=&quot;#627863&quot; face=&quot;Courier New&quot;&gt;&lt;b&gt;&amp;nbsp;Start:&amp;nbsp;&lt;/b&gt;&lt;/font&gt;&lt;div&gt;&lt;font color=&quot;#627863&quot; face=&quot;Courier New&quot;&gt;&lt;b&gt;~ Retrieve user&#39;s name&lt;/b&gt;&lt;/font&gt;&lt;/div&gt;&lt;div&gt;&lt;span style=&quot;background-color: initial;&quot;&gt;&lt;font color=&quot;#627863&quot; face=&quot;Courier New&quot;&gt;&lt;b&gt;~ Description and Introduction to Game&amp;nbsp;&lt;/b&gt;&lt;/font&gt;&lt;/span&gt;&lt;/div&gt;" style="rounded=1;whiteSpace=wrap;html=1;fontSize=12;glass=0;strokeWidth=1;shadow=0;strokeColor=#89A88B;" parent="WIyWlLk6GJQsqaUBKTNV-1" vertex="1">
          <mxGeometry x="299.53" y="130" width="200" height="60" as="geometry" />
        </mxCell>
        <mxCell id="fKGjBse5GB-iTHDxLP8P-5" value="&lt;font color=&quot;#9c5ae0&quot; data-font-src=&quot;https://fonts.googleapis.com/css?family=Boogalo&quot; face=&quot;Boogalo&quot;&gt;&lt;u style=&quot;&quot;&gt;To Be Or Not To Be&lt;/u&gt;&lt;/font&gt;&lt;div&gt;&lt;span style=&quot;font-weight: normal;&quot;&gt;&lt;font color=&quot;#9c5ae0&quot; style=&quot;font-size: 18px;&quot;&gt;&lt;font style=&quot;&quot; face=&quot;Boogalo&quot;&gt;Judy Yan &amp;amp;&lt;/font&gt;&lt;span style=&quot;font-family: Boogalo; background-color: initial;&quot;&gt;&amp;nbsp;Jessie Wu&lt;/span&gt;&lt;/font&gt;&lt;/span&gt;&lt;/div&gt;" style="text;strokeColor=none;fillColor=none;html=1;fontSize=24;fontStyle=1;verticalAlign=middle;align=center;" vertex="1" parent="WIyWlLk6GJQsqaUBKTNV-1">
          <mxGeometry x="40" y="30" width="150" height="40" as="geometry" />
        </mxCell>
        <mxCell id="fKGjBse5GB-iTHDxLP8P-7" value="" style="shape=actor;whiteSpace=wrap;html=1;strokeColor=#D4B8FF;fillColor=#EDF0FF;" vertex="1" parent="WIyWlLk6GJQsqaUBKTNV-1">
          <mxGeometry x="220" y="25" width="40" height="50" as="geometry" />
        </mxCell>
        <mxCell id="fKGjBse5GB-iTHDxLP8P-8" value="" style="strokeWidth=2;html=1;shape=mxgraph.flowchart.annotation_2;align=left;labelPosition=right;pointerEvents=1;rotation=90;" vertex="1" parent="WIyWlLk6GJQsqaUBKTNV-1">
          <mxGeometry x="377.03" y="-28.91" width="45" height="482.81" as="geometry" />
        </mxCell>
      </root>
    </mxGraphModel>
  </diagram>
</mxfile>
